<svg width="54" height="24" viewBox="0 0 54 24" fill="none" xmlns="http://www.w3.org/2000/svg">
<g clip-path="url(#clip0_607_284)">
<path d="M42.6667 0L37.9633 9.40679L47.37 11.9265L53.3333 0H42.6667Z" fill="black"/>
<path d="M41.4591 24C44.6269 24 47.195 21.432 47.195 18.2642C47.195 15.0963 44.6269 12.5283 41.4591 12.5283C38.2913 12.5283 35.7233 15.0963 35.7233 18.2642C35.7233 21.432 38.2913 24 41.4591 24Z" fill="black"/>
<path d="M20.001 13.3333H30.6677L37.3333 0H26.6667L23.5975 6.13836H18.2642L21.3333 0H10.6667L7.59748 6.13836H7.55723V6.21887L0 21.3333H10.6667L16.4025 9.86164H21.7358L20.001 13.3333Z" fill="black"/>
<path d="M24.2053 21.3333C28.6209 21.3333 33.4833 18.5842 35.0632 15.195H19.0712C17.4913 18.5842 19.7897 21.3333 24.2053 21.3333Z" fill="black"/>
</g>
<defs>
<clipPath id="clip0_607_284">
<rect width="53.3333" height="24" fill="white"/>
</clipPath>
</defs>
</svg>
